<mxfile host="app.diagrams.net" modified="2023-11-28T10:17:29.307Z" agent="Mozilla/5.0 (Windows NT 10.0; Win64; x64) AppleWebKit/537.36 (KHTML, like Gecko) Chrome/119.0.0.0 Safari/537.36" etag="nDNfIk1kcKzyygO4Iw9b" version="22.1.4" type="github">
  <diagram id="C5RBs43oDa-KdzZeNtuy" name="Page-1">
    <mxGraphModel dx="452" dy="572" grid="1" gridSize="10" guides="1" tooltips="1" connect="1" arrows="1" fold="1" page="1" pageScale="1" pageWidth="827" pageHeight="1169" math="0" shadow="0">
      <root>
        <mxCell id="WIyWlLk6GJQsqaUBKTNV-0" />
        <mxCell id="WIyWlLk6GJQsqaUBKTNV-1" parent="WIyWlLk6GJQsqaUBKTNV-0" />
        <mxCell id="9UlE0FL3r5vKeSEXAxfL-7" value="Computer" style="swimlane;fontStyle=1;align=center;verticalAlign=top;childLayout=stackLayout;horizontal=1;startSize=26;horizontalStack=0;resizeParent=1;resizeParentMax=0;resizeLast=0;collapsible=1;marginBottom=0;whiteSpace=wrap;html=1;fontSize=16;" vertex="1" parent="WIyWlLk6GJQsqaUBKTNV-1">
          <mxGeometry x="240" y="170" width="180" height="250" as="geometry" />
        </mxCell>
        <mxCell id="9UlE0FL3r5vKeSEXAxfL-8" value="- system: String&lt;br&gt;- is_on: bool&lt;br&gt;- RAM: int&lt;br&gt;- processor: Processor" style="text;strokeColor=none;fillColor=none;align=left;verticalAlign=top;spacingLeft=4;spacingRight=4;overflow=hidden;rotatable=0;points=[[0,0.5],[1,0.5]];portConstraint=eastwest;whiteSpace=wrap;html=1;fontSize=16;" vertex="1" parent="9UlE0FL3r5vKeSEXAxfL-7">
          <mxGeometry y="26" width="180" height="124" as="geometry" />
        </mxCell>
        <mxCell id="9UlE0FL3r5vKeSEXAxfL-9" value="" style="line;strokeWidth=1;fillColor=none;align=left;verticalAlign=middle;spacingTop=-1;spacingLeft=3;spacingRight=3;rotatable=0;labelPosition=right;points=[];portConstraint=eastwest;strokeColor=inherit;fontSize=16;" vertex="1" parent="9UlE0FL3r5vKeSEXAxfL-7">
          <mxGeometry y="150" width="180" height="8" as="geometry" />
        </mxCell>
        <mxCell id="9UlE0FL3r5vKeSEXAxfL-10" value="+ press_power(): void" style="text;strokeColor=none;fillColor=none;align=left;verticalAlign=top;spacingLeft=4;spacingRight=4;overflow=hidden;rotatable=0;points=[[0,0.5],[1,0.5]];portConstraint=eastwest;whiteSpace=wrap;html=1;fontSize=16;" vertex="1" parent="9UlE0FL3r5vKeSEXAxfL-7">
          <mxGeometry y="158" width="180" height="92" as="geometry" />
        </mxCell>
        <mxCell id="9UlE0FL3r5vKeSEXAxfL-11" value="Processor" style="swimlane;fontStyle=1;align=center;verticalAlign=top;childLayout=stackLayout;horizontal=1;startSize=26;horizontalStack=0;resizeParent=1;resizeParentMax=0;resizeLast=0;collapsible=1;marginBottom=0;whiteSpace=wrap;html=1;fontSize=16;" vertex="1" parent="WIyWlLk6GJQsqaUBKTNV-1">
          <mxGeometry x="480" y="170" width="160" height="164" as="geometry" />
        </mxCell>
        <mxCell id="9UlE0FL3r5vKeSEXAxfL-12" value="- brand: String&lt;br&gt;- model: String&lt;br&gt;- generation: String&lt;br&gt;- architecture: String&lt;br&gt;- tickrate: int" style="text;strokeColor=none;fillColor=none;align=left;verticalAlign=top;spacingLeft=4;spacingRight=4;overflow=hidden;rotatable=0;points=[[0,0.5],[1,0.5]];portConstraint=eastwest;whiteSpace=wrap;html=1;fontSize=16;" vertex="1" parent="9UlE0FL3r5vKeSEXAxfL-11">
          <mxGeometry y="26" width="160" height="104" as="geometry" />
        </mxCell>
        <mxCell id="9UlE0FL3r5vKeSEXAxfL-13" value="" style="line;strokeWidth=1;fillColor=none;align=left;verticalAlign=middle;spacingTop=-1;spacingLeft=3;spacingRight=3;rotatable=0;labelPosition=right;points=[];portConstraint=eastwest;strokeColor=inherit;fontSize=16;" vertex="1" parent="9UlE0FL3r5vKeSEXAxfL-11">
          <mxGeometry y="130" width="160" height="8" as="geometry" />
        </mxCell>
        <mxCell id="9UlE0FL3r5vKeSEXAxfL-14" value="+ method(type): type" style="text;strokeColor=none;fillColor=none;align=left;verticalAlign=top;spacingLeft=4;spacingRight=4;overflow=hidden;rotatable=0;points=[[0,0.5],[1,0.5]];portConstraint=eastwest;whiteSpace=wrap;html=1;fontSize=16;" vertex="1" parent="9UlE0FL3r5vKeSEXAxfL-11">
          <mxGeometry y="138" width="160" height="26" as="geometry" />
        </mxCell>
        <mxCell id="9UlE0FL3r5vKeSEXAxfL-19" value="" style="endArrow=diamondThin;endFill=1;endSize=24;html=1;rounded=0;fontSize=12;curved=1;entryX=1;entryY=0.5;entryDx=0;entryDy=0;" edge="1" parent="WIyWlLk6GJQsqaUBKTNV-1" source="9UlE0FL3r5vKeSEXAxfL-12" target="9UlE0FL3r5vKeSEXAxfL-8">
          <mxGeometry width="160" relative="1" as="geometry">
            <mxPoint x="350" y="360" as="sourcePoint" />
            <mxPoint x="510" y="360" as="targetPoint" />
          </mxGeometry>
        </mxCell>
      </root>
    </mxGraphModel>
  </diagram>
</mxfile>
